PathFileType	4	(X/Y/Z)	RBDS014static.trc
DataRate	CameraRate	NumFrames	NumMarkers	Units	OrigDataRate	OrigDataStartFrame	OrigNumFrames
150.000000	150.000000	4	48	mm	150.000000	131	150
Frame#	Time	L.Ankle			L.Ankle.Medial			L.ASIS			L.GTR			L.Heel.Bottom			L.Heel.Lateral			L.Heel.Top			L.HF			L.Iliac.Crest			L.Knee			L.Knee.Medial			L.MT1			L.MT2			L.MT5			L.PSIS			L.Shank.Bottom.Lateral			L.Shank.Bottom.Medial			L.Shank.Top.Lateral			L.Shank.Top.Medial			L.Thigh.Bottom.Lateral			L.Thigh.Bottom.Medial			L.Thigh.Top.Lateral			L.Thigh.Top.Medial			L.TT			R.Ankle			R.Ankle.Medial			R.ASIS			R.GTR			R.Heel.Bottom			R.Heel.Lateral			R.Heel.Top			R.HF			R.Iliac.Crest			R.Knee			R.Knee.Medial			R.MT1			R.MT2			R.MT5			R.PSIS			R.Shank.Bottom.Lateral			R.Shank.Bottom.Medial			R.Shank.Top.Lateral			R.Shank.Top.Medial			R.Thigh.Bottom.Lateral			R.Thigh.Bottom.Medial			R.Thigh.Top.Lateral			R.Thigh.Top.Medial			R.TT			
		X1	Y1	Z1	X2	Y2	Z2	X3	Y3	Z3	X4	Y4	Z4	X5	Y5	Z5	X6	Y6	Z6	X7	Y7	Z7	X8	Y8	Z8	X9	Y9	Z9	X10	Y10	Z10	X11	Y11	Z11	X12	Y12	Z12	X13	Y13	Z13	X14	Y14	Z14	X15	Y15	Z15	X16	Y16	Z16	X17	Y17	Z17	X18	Y18	Z18	X19	Y19	Z19	X20	Y20	Z20	X21	Y21	Z21	X22	Y22	Z22	X23	Y23	Z23	X24	Y24	Z24	X25	Y25	Z25	X26	Y26	Z26	X27	Y27	Z27	X28	Y28	Z28	X29	Y29	Z29	X30	Y30	Z30	X31	Y31	Z31	X32	Y32	Z32	X33	Y33	Z33	X34	Y34	Z34	X35	Y35	Z35	X36	Y36	Z36	X37	Y37	Z37	X38	Y38	Z38	X39	Y39	Z39	X40	Y40	Z40	X41	Y41	Z41	X42	Y42	Z42	X43	Y43	Z43	X44	Y44	Z44	X45	Y45	Z45	X46	Y46	Z46	X47	Y47	Z47	X48	Y48	Z48	

132	0.8733333333333334	714.8856201171875	108.0635986328125	1042.28271484375	740.38134765625	118.6734008789063	1127.9970703125	855.836181640625	1133.858032226563	1110.871215820313	775.9854125976563	1022.695129394531	1053.87890625	643.3849487304688	41.43739700317383	1085.336669921875	665.8932495117188	65.18955993652344	1045.105834960938	652.9473876953125	92.08821868896484	1087.239501953125	777.1079711914063	523.6356201171875	1039.620849609375	778.27587890625	1191.997680664063	1070.83984375	786.0813598632813	596.591552734375	1050.573120117188	780.5993041992188	576.4090576171875	1173.815063476563	876.7493896484375	57.7969856262207	1132.541625976563	886.5671997070313	69.34225463867188	1088.661499023438	840.1172485351563	51.19971466064453	1013.34326171875	674.8798217773438	1149.71533203125	1185.306274414063	725.5384521484375	207.7673492431641	1031.614135742188	682.502685546875	210.4189758300781	1066.4345703125	721.7113647460938	287.7329406738281	1021.935424804688	680.320556640625	291.0074768066406	1056.25341796875	780.7784423828125	753.5504760742188	1031.189819335938	719.5882568359375	747.6443481445313	1069.928466796875	765.29150390625	863.151611328125	1029.158569335938	710.2741088867188	857.8113403320313	1069.529296875	831.0440673828125	494.3432312011719	1097.482055664063	720.91796875	108.1680297851563	1417.736206054688	748.1618041992188	126.1172714233398	1332.531494140625	858.78857421875	1142.660278320313	1357.255737304688	794.8885498046875	1032.315673828125	1412.599975585938	646.1285400390625	42.97361755371094	1374.268920898438	669.5457153320313	66.31375885009766	1412.348754882813	654.8976440429688	94.95510101318359	1371.827026367188	786.2744750976563	535.263671875	1420.97705078125	795.1683349609375	1208.591064453125	1382.895629882813	789.5209350585938	606.1188354492188	1412.16552734375	786.2205200195313	582.3533935546875	1287.69091796875	879.3309326171875	58.69300079345703	1326.974975585938	890.0778198242188	72.55516815185547	1371.487426757813	846.9586791992188	51.70496368408203	1448.485473632813	683.0756225585938	1158.452392578125	1279.444213867188	713.8136596679688	208.2355499267578	1422.87890625	683.904296875	215.6293792724609	1381.932373046875	714.6491088867188	292.3361206054688	1435.16455078125	682.3887939453125	295.7123718261719	1393.05224609375	808.3074951171875	736.1510009765625	1429.285522460938	739.8357543945313	732.7805786132813	1403.779663085938	797.51416015625	844.8959350585938	1436.767333984375	732.8155517578125	842.441162109375	1410.607666015625	836.8768920898438	500.03662109375	1358.58837890625	
133	0.88	714.8889770507813	108.0638580322266	1042.284423828125	740.3773803710938	118.6771621704102	1128.00439453125	855.7872924804688	1133.850952148438	1110.904418945313	775.9178466796875	1022.701477050781	1053.905639648438	643.3822631835938	41.44129943847656	1085.341552734375	665.90087890625	65.18524169921875	1045.11328125	652.9405517578125	92.09067535400391	1087.260864257813	777.0935668945313	523.6298828125	1039.618530273438	778.2340698242188	1192	1070.87451171875	786.0675048828125	596.5848999023438	1050.570678710938	780.5892333984375	576.3941040039063	1173.811767578125	876.7400512695313	57.80353927612305	1132.532470703125	886.5650024414063	69.34276580810547	1088.66796875	840.113525390625	51.19744873046875	1013.340637207031	674.8304443359375	1149.733154296875	1185.328125	725.5291748046875	207.7679443359375	1031.609741210938	682.4986572265625	210.413818359375	1066.440795898438	721.6907958984375	287.7387390136719	1021.936584472656	680.301513671875	291.0055847167969	1056.263916015625	780.7455444335938	753.5419921875	1031.18994140625	719.551513671875	747.639892578125	1069.898559570313	765.2576293945313	863.146240234375	1029.172241210938	710.2268676757813	857.7938842773438	1069.5478515625	831.031982421875	494.3452758789063	1097.475952148438	720.9207763671875	108.1591262817383	1417.729736328125	748.1497192382813	126.1248397827148	1332.540405273438	858.74658203125	1142.659057617188	1357.287353515625	794.8330688476563	1032.319213867188	1412.630981445313	646.1312866210938	42.9704704284668	1374.270263671875	669.5411376953125	66.30487060546875	1412.341918945313	654.9034423828125	94.9542236328125	1371.827270507813	786.27783203125	535.2625122070313	1420.997924804688	795.1345825195313	1208.6044921875	1382.913818359375	789.51806640625	606.1221923828125	1412.191772460938	786.2183837890625	582.3506469726563	1287.703369140625	879.3201904296875	58.69321823120117	1326.962524414063	890.0718383789063	72.54920196533203	1371.49169921875	846.9469604492188	51.71016311645508	1448.502319335938	683.0218505859375	1158.467529296875	1279.462036132813	713.8119506835938	208.2268524169922	1422.88037109375	683.8956298828125	215.6188507080078	1381.939331054688	714.6521606445313	292.3326721191406	1435.170166015625	682.3812866210938	295.6971130371094	1393.054077148438	808.293701171875	736.1386108398438	1429.302490234375	739.8256225585938	732.7749633789063	1403.793212890625	797.4924926757813	844.8773803710938	1436.778564453125	732.784912109375	842.42333984375	1410.628051757813	836.8837890625	500.0238037109375	1358.607666015625	
134	0.8866666666666667	714.8798217773438	108.0573120117188	1042.288330078125	740.3765258789063	118.6749572753906	1128.007446289063	855.7200317382813	1133.847900390625	1110.934692382813	775.8646850585938	1022.695007324219	1053.944458007813	643.3810424804688	41.43964004516602	1085.345458984375	665.8924560546875	65.1925048828125	1045.1162109375	652.9359741210938	92.093017578125	1087.2607421875	777.07421875	523.6320190429688	1039.624267578125	778.1815795898438	1192.004638671875	1070.903686523438	786.0576782226563	596.5791015625	1050.59033203125	780.5748291015625	576.3990478515625	1173.843872070313	876.7430419921875	57.80076217651367	1132.547607421875	886.5564575195313	69.33882904052734	1088.664672851563	840.1177978515625	51.20196914672852	1013.339965820313	674.7807006835938	1149.739624023438	1185.364013671875	725.5255126953125	207.7699432373047	1031.621337890625	682.4880981445313	210.4127655029297	1066.434814453125	721.67822265625	287.7374877929688	1021.9443359375	680.2920532226563	291.0074768066406	1056.265747070313	780.7197875976563	753.544189453125	1031.19775390625	719.5264892578125	747.6246337890625	1069.934326171875	765.2045288085938	863.1390380859375	1029.198852539063	710.1861572265625	857.7861938476563	1069.556640625	831.0277709960938	494.3393249511719	1097.487915039063	720.9219360351563	108.1650848388672	1417.742919921875	748.1502075195313	126.121452331543	1332.530517578125	858.7081909179688	1142.655883789063	1357.304809570313	794.791015625	1032.314697265625	1412.651611328125	646.1257934570313	42.96615600585938	1374.2666015625	669.5438232421875	66.30361938476563	1412.348999023438	654.8984985351563	94.94750213623047	1371.833618164063	786.2821655273438	535.2566528320313	1421.01416015625	795.1005859375	1208.595947265625	1382.932861328125	789.5125122070313	606.1052856445313	1412.202758789063	786.2255249023438	582.3514404296875	1287.722045898438	879.3211669921875	58.69749450683594	1326.978515625	890.0757446289063	72.55134582519531	1371.493286132813	846.9600830078125	51.71091079711914	1448.505249023438	682.9828491210938	1158.478637695313	1279.491455078125	713.8045654296875	208.2213134765625	1422.88916015625	683.8896484375	215.6124725341797	1381.94677734375	714.6484985351563	292.322265625	1435.176635742188	682.366943359375	295.6955261230469	1393.062622070313	808.2676391601563	736.1290893554688	1429.332397460938	739.8003540039063	732.7594604492188	1403.822998046875	797.4625244140625	844.8623657226563	1436.791381835938	732.7615356445313	842.4175415039063	1410.639526367188	836.8760986328125	500.0242309570313	1358.625732421875	
135	0.8933333333333334	714.8727416992188	108.055290222168	1042.271118164063	740.38427734375	118.6742935180664	1128.006958007813	855.6616821289063	1133.83984375	1110.953002929688	775.8113403320313	1022.70703125	1053.97607421875	643.378662109375	41.43612289428711	1085.332885742188	665.8822021484375	65.19353485107422	1045.1142578125	652.9339599609375	92.08755493164063	1087.2509765625	777.08544921875	523.6289672851563	1039.628784179688	778.1378173828125	1192.003662109375	1070.932983398438	786.0469970703125	596.57470703125	1050.597534179688	780.5784301757813	576.3872680664063	1173.84765625	876.7407836914063	57.80901336669922	1132.543090820313	886.56396484375	69.34174346923828	1088.678100585938	840.1156616210938	51.19680786132813	1013.3447265625	674.7355346679688	1149.747680664063	1185.385986328125	725.522216796875	207.7754821777344	1031.618896484375	682.486083984375	210.4129791259766	1066.44091796875	721.6747436523438	287.7425231933594	1021.944213867188	680.2816162109375	291.0067138671875	1056.265502929688	780.6891479492188	753.5413208007813	1031.214599609375	719.4989013671875	747.607177734375	1069.936157226563	765.177978515625	863.1342163085938	1029.211303710938	710.1441650390625	857.7681274414063	1069.565307617188	831.0262451171875	494.3276977539063	1097.498657226563	720.9138793945313	108.1601486206055	1417.742919921875	748.1412353515625	126.1189804077148	1332.53857421875	858.662353515625	1142.654907226563	1357.312744140625	794.7348022460938	1032.314697265625	1412.681030273438	646.1268920898438	42.96587753295898	1374.281860351563	669.5416870117188	66.29834747314453	1412.351806640625	654.8968505859375	94.94466400146484	1371.839721679688	786.2738647460938	535.2495727539063	1421.0234375	795.0733642578125	1208.596313476563	1382.946899414063	789.5084228515625	606.1027221679688	1412.220947265625	786.2242431640625	582.3416748046875	1287.738403320313	879.3247680664063	58.68937683105469	1326.984375	890.0657348632813	72.55255126953125	1371.487548828125	846.9471435546875	51.69799423217773	1448.505126953125	682.9315185546875	1158.479125976563	1279.511962890625	713.8031616210938	208.2133026123047	1422.891845703125	683.888916015625	215.6080932617188	1381.953491210938	714.652587890625	292.3088684082031	1435.183227539063	682.3636474609375	295.6844482421875	1393.071411132813	808.2466430664063	736.1177368164063	1429.351928710938	739.77880859375	732.7445678710938	1403.842895507813	797.4337768554688	844.8575439453125	1436.80078125	732.7339477539063	842.3897705078125	1410.658447265625	836.8684692382813	500.0092163085938	1358.634521484375	
